<?xml version="1.0" standalone="no"?>
<!DOCTYPE svg PUBLIC "-//W3C//DTD SVG 20010904//EN"
 "http://www.w3.org/TR/2001/REC-SVG-20010904/DTD/svg10.dtd">
<svg version="1.0" xmlns="http://www.w3.org/2000/svg"
 width="1177.000000pt" height="216.000000pt" viewBox="0 0 1177.000000 216.000000"
 preserveAspectRatio="xMidYMid meet">

<g transform="translate(0.000000,216.000000) scale(0.100000,-0.100000)"
fill="#000000" stroke="none">
<path d="M942 2079 c-161 -21 -336 -87 -473 -179 -85 -57 -213 -188 -272 -277
-109 -164 -157 -321 -164 -533 -3 -80 -3 -143 0 -140 3 3 28 39 55 81 62 95
158 198 238 255 89 64 234 129 342 153 348 79 511 253 512 547 l0 91 -37 7
c-48 7 -120 6 -201 -5z"/>
<path d="M1285 1928 c0 -113 -3 -143 -23 -199 -75 -219 -231 -330 -562 -405
-192 -42 -386 -180 -503 -356 -49 -75 -109 -202 -110 -232 0 -32 73 -178 119
-241 l37 -49 23 86 c27 103 75 200 137 283 90 119 233 200 546 309 165 57 268
110 354 182 171 141 257 323 257 546 0 83 -3 101 -19 117 -22 22 -162 78 -217
87 l-39 6 0 -134z"/>
<path d="M5196 2004 c-444 -69 -820 -387 -975 -827 -62 -177 -75 -248 -76
-422 0 -143 3 -168 24 -233 79 -241 282 -381 596 -410 127 -12 354 3 495 32
130 26 370 92 382 104 7 7 248 882 248 901 0 8 -117 11 -410 11 -225 0 -410
-2 -410 -5 0 -3 -20 -78 -45 -168 -25 -90 -45 -167 -45 -171 0 -3 79 -6 176
-6 l176 0 -6 -27 c-4 -16 -26 -98 -50 -183 l-43 -155 -129 1 c-236 1 -372 68
-440 217 -27 58 -29 69 -28 187 1 140 20 227 77 359 45 105 99 184 182 266 84
83 170 136 280 172 70 23 97 27 210 27 112 1 140 -2 204 -23 86 -28 193 -97
268 -171 41 -41 57 -51 79 -48 27 3 29 7 85 213 31 115 55 213 52 218 -8 14
-116 64 -205 95 -48 17 -134 38 -191 46 -127 19 -358 19 -481 0z"/>
<path d="M2840 1948 c-7 -24 -117 -428 -245 -898 -129 -470 -237 -868 -241
-884 l-7 -28 489 5 c440 4 498 7 579 25 176 38 354 138 460 255 69 77 138 211
160 313 46 205 -28 342 -218 404 l-50 16 79 44 c199 109 327 316 312 505 -9
103 -56 171 -153 218 -120 59 -179 64 -722 66 l-432 2 -11 -43z m715 -309 c49
-13 91 -51 99 -89 7 -38 -18 -133 -48 -176 -27 -40 -73 -74 -126 -94 -21 -8
-102 -15 -204 -18 -140 -4 -168 -2 -164 9 2 8 27 96 54 196 l49 183 150 0 c83
0 168 -5 190 -11z m-63 -727 c61 -30 83 -74 73 -145 -15 -119 -89 -214 -201
-258 -53 -21 -78 -23 -261 -27 -112 -2 -203 0 -203 5 0 4 22 89 49 188 27 99
54 200 61 223 l11 44 212 -4 c197 -3 215 -5 259 -26z"/>
<path d="M1874 1663 c-34 -155 -106 -296 -199 -388 -97 -98 -230 -165 -525
-267 -243 -83 -393 -194 -496 -365 -66 -109 -103 -280 -89 -407 l7 -67 55 -24
c59 -27 177 -65 198 -65 9 0 12 30 12 123 -1 90 4 138 17 182 68 227 226 354
525 420 175 39 301 105 425 224 37 36 88 94 112 128 47 64 124 219 124 248 0
38 -134 285 -155 285 -3 0 -7 -12 -11 -27z"/>
<path d="M11603 1660 c-56 -33 -69 -84 -32 -121 18 -18 30 -21 72 -16 41 3 56
10 79 36 32 35 37 81 12 105 -22 22 -92 20 -131 -4z m119 -7 c25 -23 23 -48
-9 -83 -54 -61 -143 -48 -143 19 0 62 105 107 152 64z"/>
<path d="M11611 1603 c-11 -37 -7 -60 5 -29 8 20 33 21 40 1 4 -8 10 -15 15
-15 4 0 6 7 3 15 -3 8 1 22 10 31 22 21 11 34 -29 34 -31 0 -35 -4 -44 -37z
m69 18 c0 -9 -24 -21 -41 -21 -5 0 -9 7 -9 15 0 9 9 15 25 15 14 0 25 -4 25
-9z"/>
<path d="M8843 1491 c-72 -12 -188 -48 -248 -78 -181 -91 -340 -267 -425 -470
-58 -138 -75 -224 -75 -383 0 -132 2 -150 24 -200 38 -85 86 -145 152 -189 84
-56 171 -81 304 -88 244 -12 460 63 631 219 225 206 361 594 299 856 -19 81
-43 126 -99 189 -92 102 -200 144 -386 149 -69 1 -148 -1 -177 -5z m172 -327
c63 -29 102 -132 90 -233 -20 -161 -85 -317 -171 -410 -67 -73 -102 -96 -180
-116 -165 -43 -268 56 -251 241 20 213 142 435 276 503 80 41 168 47 236 15z"/>
<path d="M6311 1419 c-8 -29 -91 -335 -185 -680 -95 -346 -169 -630 -164 -631
4 -2 94 -1 200 2 l192 5 38 140 c20 77 54 200 74 273 l37 132 268 0 c148 0
269 2 269 5 0 3 18 70 40 150 22 80 40 149 40 155 0 6 -95 10 -266 10 -209 0
-265 3 -261 13 2 6 13 45 23 84 l18 73 291 2 290 3 36 130 c20 72 39 142 43
158 l6 27 -488 0 -488 0 -13 -51z"/>
<path d="M7360 1464 c0 -6 -357 -1317 -365 -1342 -4 -10 96 -12 488 -10 l492
3 37 135 c20 74 39 145 43 157 l5 23 -290 0 c-159 0 -290 2 -290 4 0 2 63 234
140 515 77 281 140 513 140 516 0 3 -90 5 -200 5 -110 0 -200 -3 -200 -6z"/>
<path d="M9646 1148 c-3 -178 -8 -484 -10 -681 l-5 -357 211 2 211 3 174 325
c96 179 183 341 193 360 l19 35 0 -365 c0 -361 0 -364 21 -363 11 0 104 1 208
2 l187 1 298 560 299 560 86 0 87 0 62 120 62 120 -292 0 -292 0 -187 -372
-187 -373 1 145 c0 80 3 247 7 373 l6 227 -191 0 -192 0 -202 -377 -201 -378
6 135 c3 74 13 241 20 370 8 129 15 238 15 243 0 4 -92 7 -204 7 l-204 0 -6
-322z"/>
<path d="M2051 1133 c-43 -73 -129 -175 -195 -232 -119 -102 -230 -157 -407
-200 -293 -72 -447 -205 -494 -426 -17 -79 -19 -183 -5 -205 7 -12 32 -14 122
-13 268 3 509 101 704 286 131 123 211 249 269 417 43 125 67 336 47 408 -6
20 -11 17 -41 -35z"/>
</g>
</svg>
