<?xml version="1.0" encoding="UTF-8"?>
<svg version="1.1" viewBox="0 0 2048 375" width="1280" height="1280" xmlns="http://www.w3.org/2000/svg">
<path transform="translate(0)" d="m0 0h2048v375h-2048z" fill="#FEFEFE"/>
<path transform="translate(496,29)" d="m0 0h144l28 2 14 3 16 6 12 8 8 9 5 12 1 4v21l-4 16-5 12-7 12-8 10-10 10-11 8-16 9-5 3 19 7 9 6 8 7 7 11 4 13v20l-4 18-6 16-9 16-8 10-9 10-10 9-10 7-16 9-18 8-18 5-17 3-27 2h-145l2-10 22-81 43-157 19-69z" fill="#007D42"/>
<path transform="translate(930,23)" d="m0 0h32l28 3 23 5 19 7 25 12 1 5-20 72h-10l-15-14-10-8-14-9-17-7-17-4-10-1h-11l-19 2-21 6-17 8-12 8-11 9-10 10-11 15-8 14-8 18-7 24-3 18-1 14 2 17 5 15 7 11 8 8 14 8 16 5 21 3h24l7-1 15-54 2-8h-61l2-10 13-48 3-3h139l3 1-4 17-36 132-3 9-10 4-28 8-35 8-27 4-11 1h-39l-17-2-19-4-17-6-17-9-10-8-8-7-11-15-8-17-4-13-3-20v-19l3-24 6-26 8-24 9-20 10-18 12-17 11-13 11-12 15-13 15-11 15-9 15-8 24-9 19-5 26-4z" fill="#007D42"/>
<path transform="translate(1679,119)" d="m0 0h72l-1 24-6 105 12-23 12-22 12-23 12-22 18-34 3-5h68v18l-2 55-1 46-1 10h2l3-9 12-23 8-17 10-19 30-60 1-1h102l-21 42-1 1-30 1-14 26-60 112-17 32-12 22-1 2h-74v-123l-17 32-15 28-14 26-17 32-3 5h-73v-94l2-143z" fill="#007D42"/>
<path transform="translate(1548,114)" d="m0 0h32l20 4 16 6 14 9 6 5 9 12 7 14 4 15 2 16-1 15-3 19-7 25-9 21-10 18-9 12-9 10-4 5-8 7-13 10-17 10-20 8-16 4-12 2-27 1-19-2-16-4-17-8-10-8-9-9-8-14-5-13-3-19v-14l3-22 6-23 10-25 9-16 10-14 12-14 11-10 17-12 19-10 21-7z" fill="#007D42"/>
<path transform="translate(1152,118)" d="m0 0h71l48 1-4 16-11 40-100 1-5 16-3 12h92l-2 10-12 44-2 3-92 1-11 39-15 55-1 1h-70l10-38 19-69 18-66 18-65z" fill="#007D42"/>
<path transform="translate(1281,119)" d="m0 0h70l-2 10-46 168-1 3h101l-4 17-11 39-1 1h-171l2-10 21-77 40-146z" fill="#007D42"/>
<path transform="translate(165,13)" d="m0 0h40l1 3v25l-3 17-5 13-6 11-7 9-9 9-10 7-10 6-21 8-35 9-19 8-15 8-14 10-13 11-7 7-13 17-12 20h-2l-1-13v-16l3-24 5-20 8-21 9-17 8-12 8-10 9-10 13-13 15-11 16-10 19-9 21-7 20-4z" fill="#EB1E29"/>
<path transform="translate(363,167)" d="m0 0h1l1 7v29l-3 21-7 24-9 21-9 15-8 11-9 11-15 15-17 13-13 8-16 8-15 6-21 6-18 3-12 1h-18l-10-1-1-1v-31l4-17 6-14 9-13 12-12 14-9 17-8 19-6 25-6 15-6 19-10 14-10 10-9 5-4 7-8 10-13 8-13z" fill="#EB1E29"/>
<path transform="translate(222,16)" d="m0 0 12 2 21 7 14 7 2 3 1 9v22l-3 19-5 15-8 16-8 12-11 12-7 7-15 11-15 9-21 9-30 10-29 12-20 10-12 8-10 9-9 10-11 18-8 19-5 18-2 8-5-5-8-11-12-23-4-10 2-9 12-25 8-12 13-16 10-10 17-13 14-8 15-7 15-5 27-6 17-6 16-8 12-9 9-8 9-13 7-14 4-13 2-11v-30z" fill="#EB1E29"/>
<path transform="translate(327,80)" d="m0 0 5 5 10 15 9 17 4 10v8l-9 20-10 17-11 14-11 12-11 9-14 10-19 10-21 7-26 6-15 5-16 8-11 7-13 12-9 13-8 17-4 17-1 8v21l2 14-9-1-19-6-19-8-2-2-1-5v-32l3-16 5-15 8-16 8-11 11-12 8-8 17-12 16-9 20-8 32-11 28-12 21-11 13-10 9-9 9-13 10-19 8-24z" fill="#EB1E29"/>
<path transform="translate(1543,170)" d="m0 0h18l10 4 6 5 5 10 2 8v18l-4 20-7 21-8 16-10 13-8 8-11 7-13 5-5 1h-13l-10-3-8-6-6-12-2-11v-10l4-22 8-24 9-16 9-12 8-8 13-8z" fill="#FEFEFE"/>
<path transform="translate(526,212)" d="m0 0h62l16 3 8 4 5 5 3 5v16l-4 13-6 11-7 8-10 6-12 5-15 3-61 1-1-2 18-65z" fill="#FEFEFE"/>
<path transform="translate(560,89)" d="m0 0h51l10 2 8 4 5 6 2 7-1 11-4 11-5 9-7 7-12 6-13 3-11 1h-41l1-7 16-59z" fill="#FEFEFE"/>
<path transform="translate(2030,82)" d="m0 0 9 1 5 4 2 5-2 9-4 5-9 5-11 1-8-4-3-6 1-7 5-7 9-5z" fill="#FEFEFE"/>
<path transform="translate(2030,82)" d="m0 0 9 1 5 4 2 5-2 9-4 5-9 5-11 1-8-4-3-6 1-7 5-7 9-5zm-3 3-8 4-5 5-1 9 4 5 2 1h9l7-3 5-5 2-3v-7l-4-5-3-1z" fill="#007D42"/>
<path transform="translate(2024,89)" d="m0 0h9l3 3-2 4-3 3 2 4v3l-4-1-4-6-2 1-3 6-2-1 1-8 3-7z" fill="#007D42"/>
<path transform="translate(2025,92)" d="m0 0h7l-1 3-7 1v-3z" fill="#FEFEFE"/>
</svg>
