<?xml version="1.0" standalone="no"?>
<!DOCTYPE svg PUBLIC "-//W3C//DTD SVG 20010904//EN"
 "http://www.w3.org/TR/2001/REC-SVG-20010904/DTD/svg10.dtd">
<svg version="1.0" xmlns="http://www.w3.org/2000/svg"
 width="208.000000pt" height="38.000000pt" viewBox="0 0 208.000000 38.000000"
 preserveAspectRatio="xMidYMid meet">

<g transform="translate(0.000000,38.000000) scale(0.100000,-0.100000)"
fill="#000000" stroke="none">
<path d="M1920 348 c-58 -16 -113 -38 -123 -47 -18 -17 -16 -19 42 -33 57 -14
61 -13 103 8 24 12 62 27 86 34 45 14 52 29 26 54 -19 19 -7 21 -134 -16z"/>
<path d="M31 249 c-44 -43 -43 -89 3 -135 39 -39 81 -45 116 -16 32 26 18 45
-19 26 -70 -35 -133 48 -81 104 23 24 69 29 88 10 9 -9 15 -9 23 -1 15 15 -27
43 -67 43 -23 0 -42 -9 -63 -31z"/>
<path d="M210 180 c0 -82 3 -100 15 -100 11 0 15 11 15 40 0 56 30 56 55 0 12
-26 25 -40 37 -40 18 0 18 2 -2 41 -20 37 -20 42 -6 58 9 10 16 32 16 49 0 39
-22 52 -84 52 l-46 0 0 -100z m98 43 c3 -20 -1 -23 -32 -23 -32 0 -36 3 -36
26 0 23 3 25 33 22 24 -2 33 -8 35 -25z"/>
<path d="M414 262 c-54 -43 -58 -100 -10 -148 46 -46 86 -46 132 0 36 36 42
67 22 111 -23 51 -102 71 -144 37z m105 -38 c26 -33 26 -55 3 -85 -38 -46
-122 -17 -122 43 0 64 80 92 119 42z"/>
<path d="M620 260 c-11 -11 -20 -29 -20 -39 0 -20 38 -56 71 -66 10 -4 19 -13
19 -21 0 -12 -10 -15 -42 -12 -51 3 -60 -20 -15 -36 39 -14 81 10 85 47 3 22
-3 31 -28 45 -62 34 -66 38 -51 56 10 12 23 15 42 11 33 -7 47 10 20 24 -30
17 -59 13 -81 -9z"/>
<path d="M782 264 c-22 -15 -29 -48 -14 -70 4 -7 22 -20 41 -31 40 -22 38 -38
-6 -39 -42 -1 -53 -12 -29 -30 28 -20 63 -17 86 6 29 29 25 58 -11 78 -60 33
-65 38 -50 55 9 11 22 14 42 10 22 -4 29 -2 29 10 0 29 -53 36 -88 11z"/>
<path d="M920 180 c0 -82 3 -100 15 -100 11 0 15 11 15 40 0 56 30 56 55 0 12
-26 25 -40 37 -40 23 0 23 1 -3 45 l-22 36 22 23 c45 48 11 96 -69 96 l-50 0
0 -100z m100 45 c0 -22 -4 -25 -35 -25 -31 0 -35 3 -35 25 0 22 4 25 35 25 31
0 35 -3 35 -25z"/>
<path d="M1131 266 c-30 -17 -50 -52 -51 -89 0 -41 57 -97 100 -97 41 0 100
56 100 94 0 80 -80 130 -149 92z m99 -38 c25 -27 26 -59 2 -89 -39 -47 -122
-16 -122 45 0 32 36 66 70 66 17 0 38 -9 50 -22z"/>
<path d="M1335 184 c-25 -53 -45 -98 -45 -100 0 -2 9 -4 20 -4 13 0 24 10 30
25 8 21 16 25 53 25 37 0 46 -4 55 -25 13 -27 48 -36 38 -10 -37 98 -81 185
-93 185 -8 0 -33 -41 -58 -96z m81 -21 c-2 -2 -15 -3 -28 -1 -24 3 -24 4 -10
38 l15 35 14 -34 c8 -18 12 -35 9 -38z"/>
<path d="M1522 183 l3 -98 53 -3 c49 -3 56 0 87 31 47 47 49 96 4 138 -27 25
-39 29 -90 29 l-60 0 3 -97z m120 50 c22 -20 24 -85 4 -102 -8 -7 -30 -15 -50
-18 l-36 -6 0 72 0 71 32 0 c17 0 40 -7 50 -17z"/>
<path d="M1997 255 c-20 -14 -37 -27 -37 -29 0 -3 61 -46 97 -69 10 -6 13 7
13 58 0 76 -11 82 -73 40z"/>
<path d="M1770 200 l0 -51 39 33 c22 18 39 34 37 35 -1 1 -19 9 -39 18 l-37
15 0 -50z"/>
<path d="M1856 128 c-25 -29 -42 -55 -38 -59 13 -13 221 -64 228 -56 12 11
-16 54 -67 104 -72 70 -71 70 -123 11z"/>
</g>
</svg>
