<?xml version="1.0" encoding="UTF-8"?>
<svg version="1.1" viewBox="0 0 2048 682" width="1280" height="1280" xmlns="http://www.w3.org/2000/svg">
<path transform="translate(805,312)" d="m0 0h39l1 4-10 15-10 11-11 7-14 5-25 5-24 3h-8l9 24 19 56 5 14 1 3 5-4 60-100 8-13 17-28 1-1 12-1h266l-2 5-10 17-14 24-3 3h-154l-2 5-6 11-1 4 89-1h62l-2 6-16 28-9 15-15 26-5 9-3 3-232 1h-153l-3-4-9-30-17-61-2-7 1-5 10-19 12-20 4-7h6l12 6 11 2h18l15-3 12-5 4-2z" fill="#020101"/>
<path transform="translate(1171,312)" d="m0 0h187l2 2 8 33 2 3 3-1 11-17 10-16 4-4h112l-1 5-8 13-15 26-13 22-12 20-13 22-14 24-11 19-5 5h-124l-3-5-8-37-15-73-6-29-1-4h-2l-2 5-27 45-17 28-15 25-14 23-12 20-5 2h-90l1-5 10-16 15-26 13-22 16-27 14-25 14-24 6-9z" fill="#020101"/>
<path transform="translate(1758,313)" d="m0 0h8l2 2-14 8-26 14-25 14-24 13-20 11-4 3h124l-1 4-7 10-7 11-16 24-11 17-13 20-5 4h-266l-13-1 8-14 14-25 15-27 9-16 4-5 10-6 92-46 22-12 5-2z" fill="#010000"/>
<path transform="translate(1846,312)" d="m0 0h121l58 1 1 1v153l-2 1h-94l-2-1-1-14v-122l-6 5-6 11-8 13-18 30-17 29-17 28-11 18-3 3h-95l1-5 12-19 15-26 13-22 15-26 13-23 15-26 6-8z" fill="#020101"/>
<path transform="translate(115,312)" d="m0 0h287l2 1-2 5-9 14-12 19-7 12-2 1-186 1-12 21-15 27-16 28-14 24-3 3h-105l1-4 9-16 15-25 17-29 16-27 15-26 13-22 5-6z" fill="#010000"/>
<path transform="translate(173,213)" d="m0 0h288l-1 4-10 17-11 19-12 21-10 17-3 5-2 1h-169l-121 1 1-5 9-14 30-50 9-14z" fill="#ED3833"/>
<path transform="translate(1866,213)" d="m0 0h4l-1 4-15 26-13 22-13 23-6 9-1 1h-277l2-6 10-16 10-17 13-23 13-22z" fill="#ED3833"/>
<path transform="translate(929,213)" d="m0 0h275v4l-8 13-15 26-12 21-11 18-2 2h-277l4-8 12-20 10-18 14-24 6-10z" fill="#ED3833"/>
<path transform="translate(608,213)" d="m0 0h197l11 2 12 8 7 7 9 14 5 11 5 16 1 14-1 8-2 2-25 1h-269l-3-2 15-25 17-29 12-19 5-7z" fill="#ED3934"/>
<path transform="translate(548,313)" d="m0 0h103l1 3-16 27-17 28-31 51-14 23-13 21-3 2h-105l1-5 14-22 11-18 16-26 12-20 8-13 17-28 12-19z" fill="#030202"/>
<path transform="translate(423,313)" d="m0 0h103l-1 6-8 13-13 21-16 26-14 23-16 26-9 15-14 23-4 2h-104l2-6 12-19 34-56 8-13 14-23 18-30 6-7z" fill="#010000"/>
<path transform="translate(1897,213)" d="m0 0 128 1 1 1v49l-1 32-1 1h-178l6-11 12-20 15-26 15-25z" fill="#ED3833"/>
<path transform="translate(1228,213)" d="m0 0 111 1 2 5 11 53 5 22v3h-180l6-11 9-15 15-26 17-28z" fill="#ED3833"/>
<path transform="translate(1461,213)" d="m0 0h108l-2 5-9 14-14 24-16 27-8 14h-111l6-11 12-19 14-24 17-28z" fill="#ED3833"/>
<path transform="translate(483,213)" d="m0 0h104l-1 4-15 25-15 24-10 17-8 12-4 2h-101l1-5 15-25 13-22 14-23 5-8z" fill="#ED3A35"/>
<path transform="translate(1927,328)" d="m0 0h2l1 31v49l-1 43-2 2v-122z" fill="#FDFDFD"/>
<path transform="translate(328,465)" d="m0 0 11 1 92 1v1h-104z" fill="#FDFDFD"/>
<path transform="translate(21,465)" d="m0 0 6 1 99 1v1h-105z" fill="#FDFDFD"/>
</svg>
