<?xml version="1.0" standalone="no"?>
<!DOCTYPE svg PUBLIC "-//W3C//DTD SVG 20010904//EN"
 "http://www.w3.org/TR/2001/REC-SVG-20010904/DTD/svg10.dtd">
<svg version="1.0" xmlns="http://www.w3.org/2000/svg"
 width="1751.000000pt" height="900.000000pt" viewBox="0 0 1751.000000 900.000000"
 preserveAspectRatio="xMidYMid meet">

<g transform="translate(0.000000,900.000000) scale(0.100000,-0.100000)"
fill="#000000" stroke="none">
<path d="M250 6485 l0 -2275 8530 0 8530 0 0 2275 0 2275 -8530 0 -8530 0 0
-2275z m16848 -2 l-3 -2078 -497 -3 c-274 -1 -498 1 -498 4 0 4 26 48 59 98
203 314 319 639 352 988 17 191 7 584 -20 713 -129 627 -503 865 -1426 910
-129 6 -2238 35 -2242 31 -2 -2 -627 -2340 -724 -2708 l-10 -38 -2219 0
c-1420 0 -2220 3 -2220 10 0 25 107 325 156 438 136 312 313 580 523 791 294
295 623 459 986 490 348 30 664 -71 884 -283 174 -168 263 -354 315 -658 l7
-38 566 0 565 0 -7 78 c-44 504 -195 934 -437 1243 -144 185 -367 363 -580
464 -461 218 -1139 273 -1772 144 -513 -106 -990 -364 -1371 -744 -387 -385
-700 -918 -878 -1495 -38 -124 -58 -199 -106 -405 l-7 -30 -228 -3 -229 -2 7
31 c5 26 694 2617 712 2682 5 16 -26 17 -587 15 l-592 -3 -267 -1000 c-146
-550 -269 -1006 -274 -1013 -5 -9 -200 -12 -877 -12 -478 0 -869 2 -869 4 0 2
119 452 265 999 146 547 265 1002 265 1011 0 15 -54 16 -587 14 l-588 -3 -347
-1300 c-191 -715 -354 -1328 -363 -1363 l-17 -62 -727 2 -726 3 -3 2078 -2
2077 8320 0 8320 0 -2 -2077z m-1993 -426 c165 -36 244 -86 291 -185 25 -51
28 -71 32 -184 7 -202 -24 -368 -98 -526 -108 -230 -304 -401 -540 -474 -75
-22 -78 -22 -782 -26 -574 -2 -707 0 -703 10 2 7 90 306 195 663 105 358 198
672 206 698 l16 48 657 -4 c545 -3 668 -7 726 -20z"/>
<path d="M250 3740 l0 -140 728 0 729 0 32 123 c18 67 34 130 37 140 5 16 -36
17 -760 17 l-766 0 0 -140z"/>
<path d="M2950 3838 c-6 -24 -22 -83 -36 -133 -13 -49 -24 -93 -24 -97 0 -5
394 -8 875 -8 l874 0 10 38 c6 20 22 80 36 132 14 52 25 98 25 103 0 4 -394 7
-875 7 l-874 0 -11 -42z"/>
<path d="M5860 3753 c-18 -71 -35 -134 -38 -140 -3 -10 59 -13 290 -13 l295 0
6 98 c4 53 7 116 7 140 l0 42 -263 0 -264 0 -33 -127z"/>
<path d="M7550 3740 l0 -140 2164 0 2163 0 33 123 c18 67 35 130 38 140 4 16
-105 17 -2197 17 l-2201 0 0 -140z"/>
<path d="M13052 3748 c-18 -73 -32 -136 -32 -140 0 -5 965 -8 2145 -8 l2145 0
0 140 0 140 -2113 0 -2113 0 -32 -132z"/>
<path d="M250 3085 l0 -245 627 2 628 3 62 230 c34 127 62 236 63 243 0 9
-144 12 -690 12 l-690 0 0 -245z"/>
<path d="M2811 3308 c-12 -32 -121 -443 -121 -457 0 -8 234 -11 873 -11 l874
0 62 233 c34 127 61 238 61 245 0 9 -181 12 -870 12 l-870 0 -9 -22z"/>
<path d="M5745 3318 c-7 -21 -125 -464 -125 -471 0 -4 196 -7 435 -7 341 0
435 3 435 13 0 6 -9 57 -19 112 -11 55 -24 145 -31 200 -6 55 -13 115 -16 133
l-5 32 -335 0 c-259 0 -336 -3 -339 -12z"/>
<path d="M7578 3325 c-15 -16 54 -303 100 -413 l28 -67 1140 -3 1141 -2 51 92
c28 51 65 128 83 171 l32 77 583 0 c568 0 584 -1 584 -19 0 -11 -20 -82 -45
-159 -25 -77 -45 -145 -45 -151 0 -13 436 -16 444 -3 6 10 126 458 126 471 0
11 -4211 17 -4222 6z"/>
<path d="M12945 3318 c-8 -25 -115 -457 -115 -468 0 -7 705 -10 2240 -10
l2240 0 0 245 0 245 -2180 0 c-1736 0 -2182 -3 -2185 -12z"/>
<path d="M250 2175 l0 -395 486 2 487 3 99 370 c54 204 101 380 104 393 l6 22
-591 0 -591 0 0 -395z"/>
<path d="M2610 2566 c0 -5 -200 -758 -205 -773 -3 -10 175 -13 873 -13 l877 0
103 388 c56 213 102 390 102 395 0 4 -394 7 -875 7 -481 0 -875 -2 -875 -4z"/>
<path d="M5442 2183 c-57 -214 -103 -391 -102 -395 0 -5 378 -8 841 -8 l840 0
-57 68 c-129 151 -286 428 -362 637 l-30 80 -514 3 -513 2 -103 -387z"/>
<path d="M7900 2540 c28 -40 148 -143 218 -187 306 -196 772 -251 1127 -132
169 57 360 175 480 298 l49 51 -948 0 -947 0 21 -30z"/>
<path d="M11045 2463 c-109 -206 -241 -392 -413 -581 l-93 -102 427 2 427 3
103 385 c57 212 104 388 104 393 0 4 -112 7 -249 7 l-249 0 -57 -107z"/>
<path d="M12755 2558 c-2 -7 -45 -177 -95 -378 -50 -201 -93 -373 -96 -382 -5
-17 112 -18 2370 -18 l2376 0 0 395 0 395 -2275 0 c-1812 0 -2277 -3 -2280
-12z"/>
<path d="M250 870 l0 -640 8530 0 8530 0 0 640 0 640 -2409 0 -2409 0 -48
-197 c-26 -109 -50 -201 -54 -206 -3 -4 -270 -6 -592 -5 l-585 3 53 200 c29
110 53 201 54 203 0 1 -252 2 -560 2 l-559 0 -70 -45 c-87 -57 -278 -152 -399
-199 -162 -64 -378 -117 -597 -148 -139 -20 -599 -17 -755 5 -400 56 -726 169
-987 341 l-70 46 -1032 0 c-567 0 -1031 -2 -1031 -4 0 -2 -25 -97 -55 -211
-30 -113 -55 -208 -55 -211 0 -2 -265 -4 -590 -4 -324 0 -590 3 -590 6 0 3 25
98 55 210 30 113 55 207 55 210 0 2 -393 4 -874 4 l-875 0 -15 -52 c-8 -29
-34 -126 -57 -215 l-43 -163 -588 0 c-397 0 -588 3 -588 10 0 11 98 384 107
407 4 10 -88 13 -446 13 l-451 0 0 -640z"/>
</g>
</svg>
