<?xml version="1.0" encoding="UTF-8"?>
<svg version="1.1" viewBox="0 0 1751 900" width="1280" height="1280" xmlns="http://www.w3.org/2000/svg">
<path transform="translate(3,1)" d="m0 0h1748v899h-1749v-898z" fill="#fff"/>
<path transform="translate(46,44)" d="m0 0h1664v415l-1 1h-99l2-5 13-21 11-23 9-27 4-19 2-19v-49l-3-21-5-18-8-17-10-14-7-7-13-9-16-8-15-5-24-5-27-3-17-1-43-1-159-2-22-1-4 17-27 102-27 101-14 52-1 3h-444l3-12 9-26 12-26 11-19 11-16 8-10 9-10 7-8 11-10 16-12 16-9 18-8 23-6 20-2 20 1 20 4 20 8 12 8 10 9 8 8 9 14 7 15 5 18 2 14h113l-4-32-5-25-7-23-10-23-9-16-10-14-11-12-10-10-16-12-18-10-19-8-19-6-25-5-17-2-16-1h-29l-26 2-26 4-28 7-22 8-24 11-22 13-19 14-14 12-13 12-12 13-9 11-12 16-13 20-10 18-8 15-12 28-12 36-7 28-2 6h-45l1-8 29-109 27-101 14-52 1-3-118 1-25 94-28 105-2 3h-174l4-17 20-76 27-101 3-9-118 1-13 48-29 109-27 101-4 14h-145l-1-1z" fill="#fff"/>
<path transform="translate(25,24)" d="m0 0h1706v455h-1706zm21 20v415l1 1h145l13-48 29-109 27-101 4-14 118-1-4 13-50 188v2h174l3-7 29-109 23-86 118-1-8 29-29 109-27 101-8 30v4h45l2-6 7-28 12-36 10-23 8-17 13-23 15-22 10-13 12-14 14-15 11-10 14-11 15-11 19-11 16-8 21-9 23-7 22-5 31-4 16-1h29l25 2 24 4 23 6 22 9 15 8 13 9 11 9 15 15 11 15 10 17 9 20 7 21 6 26 4 29 1 9h-113l-2-14-5-18-9-19-9-12-13-13-15-10-20-8-20-4-20-1-20 2-23 6-18 8-11 6-13 9-11 9-13 12-9 10-13 17-11 17-12 22-9 21-11 33v2h444l8-29 29-109 27-101 9-34v-2l22 1 159 2 43 1 28 2 27 4 20 5 19 8 14 9 12 11 7 10 8 15 5 15 4 20 1 9v49l-2 19-5 22-8 24-12 25-12 19-2 5h99l1-1v-415z" fill="#003A8F"/>
<path transform="translate(25,749)" d="m0 0h90l-4 17-7 26 117-1 11-40 1-2h175l-2 10-8 30-1 3h118l2-10 8-31 1-2h207l18 11 16 8 15 6 19 6 23 5 22 3 12 1h40l26-3 24-5 30-10 18-8 19-11 4-3h113l-4 17-6 23 117 1 4-18 6-23h482v128h-1706z" fill="#003A8F"/>
<path transform="translate(1276,643)" d="m0 0h455v79h-475l4-18 15-60z" fill="#003A8F"/>
<path transform="translate(1372,292)" d="m0 0h122l17 2 14 4 9 6 6 8 3 10v26l-3 18-6 17-9 16-12 13-8 7-14 8-14 5-10 2h-137l7-25 34-115z" fill="#fff"/>
<path transform="translate(1295,567)" d="m0 0h436v49h-448l1-8 10-40z" fill="#003A8F"/>
<path transform="translate(757,567)" d="m0 0h423l-1 8-11 41h-46l8-26 2-8h-117l-3 9-8 16-5 9h-228l-5-10-6-20z" fill="#003A8F"/>
<path transform="translate(261,643)" d="m0 0h175l-1 8-19 71h-176l9-35 11-42z" fill="#003A8F"/>
<path transform="translate(755,512)" d="m0 0h440l-2 10-5 18h-433z" fill="#003A8F"/>
<path transform="translate(1308,512)" d="m0 0h423v28h-430z" fill="#003A8F"/>
<path transform="translate(554,643)" d="m0 0h103l5 12 8 18 10 19 12 17 9 11 1 2h-169l15-57z" fill="#003A8F"/>
<path transform="translate(281,567)" d="m0 0h175l-1 9-11 40h-175l1-8z" fill="#003A8F"/>
<path transform="translate(25,643)" d="m0 0h118l-2 10-18 68-1 1h-97z" fill="#003A8F"/>
<path transform="translate(25,567)" d="m0 0h138l-1 8-11 40-1 1h-125z" fill="#003A8F"/>
<path transform="translate(788,643)" d="m0 0h189l-6 7-10 9-15 10-17 8-17 5-12 2h-32l-19-3-16-5-19-9-12-9-12-11z" fill="#003A8F"/>
<path transform="translate(1110,643)" d="m0 0h50l-2 11-18 67-1 1h-85l6-7 10-11 11-14 12-17 12-21z" fill="#003A8F"/>
<path transform="translate(296,512)" d="m0 0h175l-1 7-6 21h-175l2-11z" fill="#003A8F"/>
<path transform="translate(25,512)" d="m0 0h153l-2 10-5 18h-146z" fill="#003A8F"/>
<path transform="translate(575,567)" d="m0 0h67l2 13 5 31v5h-87l2-11 10-37z" fill="#003A8F"/>
<path transform="translate(589,512)" d="m0 0h53v15l-1 13h-59l4-17z" fill="#003A8F"/>
</svg>
