<?xml version="1.0" encoding="UTF-8"?>
<svg version="1.1" viewBox="0 0 2048 785" width="1280" height="1280" xmlns="http://www.w3.org/2000/svg">
<path transform="translate(0)" d="m0 0h2048v785h-2048z" fill="#FEFDFD"/>
<path transform="translate(28,44)" d="m0 0h523l1 1 1 13 1 215v131l-1 160-1 2-4 1-59 1h-455l-6-1-1-2v-64l-1-93v-233l1-130z" fill="#FEFDFD"/>
<path transform="translate(1707,187)" d="m0 0h204l1 4v155l-1 42-2 20-5 19-7 17-10 18-8 12-11 14-12 13-12 12-14 11-10 7-13 8-19 10-24 9-15 3-23 2-30 1-1 191-1 1h-160l-1-1-1-400 1-27 4-25 6-16 9-17 10-14 11-12 11-11 13-10 18-11 16-8 25-9 23-5 15-2z" fill="#EF1D28"/>
<path transform="translate(994,41)" d="m0 0h36l6 1 1 3 1 131 1 21h107l1 8v148l-1 4-60 1h-49l2 16 5 14 6 10 8 6 9 4 9 2 69 1 1 7v40l-1 110-1 1h-88l-25-3-21-5-19-7-17-8-14-9-11-9-12-11-11-12-12-17-9-16-8-16-9-24-6-22-9-52-97-1-1-1v-157l1-1 97-1v-120l1-35z" fill="#EF1D28"/>
<path transform="translate(1205,196)" d="m0 0h152l19 2 20 5 24 10 18 10 17 12 11 9 10 9 11 12 12 17 10 19 5 14 3 19v219l-1 15-7 1h-346l-1-56v-75l1-25 1-2 17-1 178-1-3-28-4-12-5-8-6-3-5-1-15-1h-143l-13-1-2-2v-155l1-1z" fill="#EF1D28"/>
<path transform="translate(260,198)" d="m0 0h13l11 3 8 4 9 8 4 8 2 6 1 8v53l2 19 3 11 5 8 6 5 10 4 23 2 118 1 2 1 1 13v167l-1 4h-106l-28-1-32-3-23-4-23-5-28-9-19-8-19-11-13-10-12-11-8-8-8-10-9-14-8-16-8-20-7-25-6-36-2-18-2-39-1-37 4 1 13 6 13 4 6 1h13l15-5 8-5 10-9 14-12 14-9 16-8z" fill="#EF1D28"/>
<path transform="translate(602,198)" d="m0 0h103l53 1 1 13 1 150 2 14 5 15 6 10 8 7 7 3 7 1 73 1 4 1 1 11-1 146-1 3-53 1-29-1-28-3-25-5-24-8-21-10-12-8-9-7-13-12-11-13-10-15-10-19-9-25-7-27-5-30-2-19-1-17-1-73v-74z" fill="#EF1D28"/>
<path transform="translate(28,44)" d="m0 0h523l1 1 1 13 1 215v131l-1 160-1 2-4 1-59 1h-455l-6-1-1-2v-64l-1-93v-233l1-130zm29 21-10 1-1 1v480l1 1h52l433-1 1-4v-461l-1-16-1-1z" fill="#EF1D28"/>
<path transform="translate(743,41)" d="m0 0h10l6 1v144l-1 2h-155l-1-1-1-42v-74l1-29z" fill="#EF1D28"/>
<path transform="translate(116,87)" d="m0 0h191l1 111-7-6-9-8-12-6-8-2h-17l-11 3-17 8-18 12-16 12-18 12-8 4-9 3-13 1-10-3-9-6-8-8-2-5z" fill="#EF1D28"/>
<path transform="translate(1970,182)" d="m0 0h14l16 4 11 6 6 5 9 12 5 11 3 11v18l-4 13-7 11-5 6-12 9-11 5-9 2-12 1-14-3-12-6-9-7-8-9-5-10-4-16v-14l3-13 7-12 10-11 14-9 9-3z" fill="#FEFDFD"/>
<path transform="translate(35,45)" d="m0 0 49 1-2 2 18 5 5 5h-2v2l-9 2-11 1h-15l-3 1-15 1-4 1-1 6v377l-1 82-1 3v6l-1 2h-3l-1 4-3-1-1-5-3-13-2-15-1-32v-429l1-5z" fill="#FD201E"/>
<path transform="translate(1970,182)" d="m0 0h14l16 4 11 6 6 5 9 12 5 11 3 11v18l-4 13-7 11-5 6-12 9-11 5-9 2-12 1-14-3-12-6-9-7-8-9-5-10-4-16v-14l3-13 7-12 10-11 14-9 9-3zm7 12-14 2-10 5-9 8-8 13-4 12v8l4 15 3 6 9 10 8 6 8 4 5 1h14l13-3 12-7 8-9 5-10 2-8v-15l-4-13-6-9-8-8-12-6-8-2z" fill="#FA1F1F"/>
<path transform="translate(1724,346)" d="m0 0h26l1 7-2 15-4 12-7 11-8 7-8 4-11 2h-18l-3-3-1-3v-15l1-11 4-12 6-7 5-3 12-3z" fill="#FEFDFD"/>
<path transform="translate(1969,208)" d="m0 0h14l8 2 7 6 2 6v10l-7 9-3 3 1 6 6 9 4 5 1 4-5 3-6-2-7-11-6-10-2-2-11-2v24l-1 4-5-2-4-6-2-16-1-14v-15l4-7 5-3z" fill="#EF1D28"/>
<path transform="translate(1895,442)" d="m0 0 1 4-9 16-8 12-11 14-12 13-12 12-14 11-7 5h-3v-2l7-7 5-1 2-5h2l1-2h2l3-2-1-3h2v-2h2l1-2h5v-2l4-4h2v-2h2l3-10-8 7-5 5h-2l-2 4-3 1v2l-4 1v2l-5 2-1-4h3l3-5 9-7 4-5h2v-2l7-6 1-2 5-1 4-4h2l1-3 6-5 1-2h2v-3h2v-4l6-5z" fill="#FB1F1F"/>
<path transform="translate(520,58)" d="m0 0 17 2 5 7 1 12-4 17v16l-1 1v13l-1 19-1 6-2-4v-32l-1-50h-15l-14-1v-1l9-1 1-2z" fill="#FD201E"/>
<path transform="translate(657,77)" d="m0 0 6 2 4 1h-2v4l2 1-6 4-2 3h-2l2 6 6-1 2-2 3-1 2 4v5l-3-1-7 4-3 3-6 2-7 2-1-2 2-5-1-4h-2l1-7 4-2 1-2h3v-3l-4-2-2-2v-2l1-4h8l1 3z" fill="#FC1F1E"/>
<path transform="translate(1956,186)" d="m0 0 6 1v2l2 1v2l6-2h7l1 1 9 1 9 4-3 1-8-2-17 1-10 3-10 7-5 6-3-1-2 5-2-1-2-7h-2l-1 3-1-2 8-10 8-7z" fill="#EF1D28"/>
<path transform="translate(1967,220)" d="m0 0h18l4 4-1 7-4 2-19 1-3-3v-7l2-3z" fill="#FEFDFD"/>
<path transform="translate(1984,244)" d="m0 0h4l2 7 4 4 7 9 1 4-5 3-6-2-6-9 1-4h2v-4l-4-1-2-4z" fill="#F91F20"/>
<path transform="translate(669,94)" d="m0 0 3 4v5l-3-1-7 4-3 3-6 2-7 2-1-2 2-5-1-3h4v-2h3v2l2 1v2l4-2 1-6 5-1 2-2z" fill="#FD201E"/>
<path transform="translate(2e3 217)" d="m0 0 1 2h2l1 3v10l-5 7h-2l1-8-1-9z" fill="#F81F21"/>
<path transform="translate(1959,235)" d="m0 0 4 1 1 4-2 6-2 3h-2v-2l-3-1 2-4v-5z" fill="#FD201E"/>
<path transform="translate(1929,211)" d="m0 0 1 3-3 7-2 11-1 7v12h-1l-1-6v-14l3-13z" fill="#EF1D29"/>
<path transform="translate(649,96)" d="m0 0h3l1 3h2v4l3-3 2 2-2 4h-3v-2l-3-1 1-2h-3l1 3-4-1 1-6z" fill="#EF1D29"/>
<path transform="translate(1826,520)" d="m0 0h8l-5 5-6 4h-3v-2l5-5z" fill="#F81F21"/>
</svg>
