<?xml version="1.0" standalone="no"?>
<!DOCTYPE svg PUBLIC "-//W3C//DTD SVG 20010904//EN"
 "http://www.w3.org/TR/2001/REC-SVG-20010904/DTD/svg10.dtd">
<svg version="1.0" xmlns="http://www.w3.org/2000/svg"
 width="271.000000pt" height="104.000000pt" viewBox="0 0 271.000000 104.000000"
 preserveAspectRatio="xMidYMid meet">

<g transform="translate(0.000000,104.000000) scale(0.100000,-0.100000)"
fill="#000000" stroke="none">
<path d="M40 635 l0 -345 345 0 345 0 0 345 0 345 -345 0 -345 0 0 -345z m668
-2 l2 -323 -325 0 -325 0 0 325 0 325 323 -2 322 -3 3 -322z"/>
<path d="M162 833 c3 -87 3 -88 30 -91 18 -2 44 9 78 32 53 37 97 45 118 24 9
-9 12 3 12 55 l0 67 -120 0 -121 0 3 -87z"/>
<path d="M284 747 c-49 -40 -70 -48 -100 -37 l-27 11 5 -88 c13 -211 108 -283
375 -283 l93 0 0 120 0 120 -99 0 c-75 0 -102 4 -111 15 -7 8 -15 47 -19 87
l-6 73 -41 3 c-32 2 -48 -3 -70 -21z"/>
<path d="M800 885 l0 -95 100 0 100 0 0 95 0 95 -100 0 -100 0 0 -95z"/>
<path d="M1158 878 l-3 -103 -63 0 -62 0 0 -102 0 -103 63 0 62 0 17 -69 c20
-86 59 -145 117 -179 37 -21 60 -27 133 -30 l88 -4 0 100 0 100 -56 4 c-59 5
-84 23 -84 60 0 16 9 18 75 18 l75 0 0 100 0 99 -72 3 -73 3 -3 103 -3 102
-104 0 -104 0 -3 -102z"/>
<path d="M2600 793 c-25 -9 -50 -35 -50 -52 0 -10 5 -7 13 9 26 51 117 31 117
-27 0 -26 -32 -63 -56 -63 -25 0 -54 20 -64 43 -7 17 -9 18 -9 5 -1 -26 35
-58 64 -58 33 0 75 42 75 73 0 44 -51 84 -90 70z"/>
<path d="M2189 776 c-60 -21 -107 -55 -131 -94 -22 -36 -23 -44 -26 -339 l-3
-303 105 0 106 0 0 130 0 130 44 0 c83 0 163 52 214 139 26 44 27 54 30 199
l4 152 -154 0 c-99 -1 -166 -5 -189 -14z m131 -214 c0 -25 -36 -62 -61 -62
-25 0 -35 25 -21 56 9 19 19 24 47 24 27 0 35 -4 35 -18z"/>
<path d="M1540 675 l0 -105 118 0 c128 0 142 -5 142 -52 l0 -28 -130 0 -130 0
0 -100 0 -100 236 0 236 0 -3 168 c-4 155 -6 170 -27 205 -57 91 -126 117
-308 117 l-134 0 0 -105z"/>
<path d="M800 647 c0 -262 65 -352 265 -365 l85 -5 0 107 0 106 -53 0 c-87 0
-91 7 -95 154 l-4 126 -99 0 -99 0 0 -123z"/>
<path d="M2591 718 c1 -25 4 -33 6 -20 l5 24 25 -24 c15 -12 22 -16 18 -8 -5
8 -8 27 -7 42 2 24 -1 28 -23 28 -23 0 -25 -3 -24 -42z m39 22 c0 -5 -7 -10
-15 -10 -8 0 -15 5 -15 10 0 6 7 10 15 10 8 0 15 -4 15 -10z"/>
</g>
</svg>
