<?xml version="1.0" standalone="no"?>
<!DOCTYPE svg PUBLIC "-//W3C//DTD SVG 20010904//EN"
 "http://www.w3.org/TR/2001/REC-SVG-20010904/DTD/svg10.dtd">
<svg version="1.0" xmlns="http://www.w3.org/2000/svg"
 width="159.000000pt" height="132.000000pt" viewBox="0 0 159.000000 132.000000"
 preserveAspectRatio="xMidYMid meet">

<g transform="translate(0.000000,132.000000) scale(0.100000,-0.100000)"
fill="#000000" stroke="none">
<path d="M1283 1259 c-31 -11 -45 -42 -33 -73 18 -48 93 -43 102 8 9 45 -29
81 -69 65z m41 -25 c19 -18 19 -20 6 -45 -17 -31 -70 -18 -70 17 0 14 27 44
40 44 5 0 16 -7 24 -16z"/>
<path d="M1286 1233 c-3 -4 -6 -16 -6 -28 0 -14 6 -21 20 -21 14 0 20 7 20 22
0 21 -22 39 -34 27z"/>
<path d="M464 1241 c-51 -31 -100 -98 -139 -189 -59 -137 -185 -414 -204 -447
-10 -16 -28 -47 -40 -68 l-23 -37 44 -20 c53 -24 99 -25 145 -4 57 28 61 34
233 409 15 34 35 66 43 73 17 14 57 24 55 14 -1 -4 9 -25 22 -46 20 -34 25
-36 31 -20 3 10 5 22 2 27 -2 4 1 7 8 7 7 0 9 3 6 7 -4 3 -2 12 5 20 6 7 25
47 43 87 28 66 31 77 20 102 -16 36 -61 79 -98 93 -44 17 -118 13 -153 -8z
m213 -99 c-10 -10 -17 -25 -18 -33 0 -11 -2 -11 -6 -1 -5 12 23 52 35 52 3 0
-2 -8 -11 -18z m32 -15 c-2 -1 -12 -9 -22 -16 -15 -12 -17 -12 -11 3 3 9 13
16 22 16 8 0 13 -1 11 -3z m-19 -47 c-6 -11 -13 -20 -16 -20 -2 0 0 9 6 20 6
11 13 20 16 20 2 0 0 -9 -6 -20z m-20 -35 c14 -19 14 -19 -2 -6 -10 7 -18 18
-18 24 0 6 1 8 3 6 1 -2 9 -13 17 -24z m-46 -94 c-2 -3 -12 3 -22 13 -16 17
-16 18 5 5 12 -7 20 -15 17 -18z"/>
<path d="M884 1241 c-61 -37 -101 -100 -184 -289 -45 -103 -113 -247 -150
-320 l-68 -133 24 -16 c28 -18 101 -28 138 -19 51 13 89 59 144 176 90 190
122 261 122 268 0 14 51 62 66 62 8 0 23 -15 34 -32 112 -190 262 -417 292
-440 60 -49 152 -46 222 7 17 13 17 16 -16 57 -19 24 -53 70 -75 103 -38 57
-251 410 -305 505 -34 60 -88 90 -159 90 -35 0 -65 -7 -85 -19z"/>
<path d="M916 784 c-3 -9 -3 -21 1 -26 3 -6 1 -8 -4 -5 -6 4 -19 -16 -31 -46
l-20 -52 20 -18 c12 -10 17 -21 13 -25 -4 -4 -10 -1 -13 7 -4 11 -6 11 -14 0
-8 -11 -9 -10 -4 4 3 9 1 17 -3 17 -12 0 -23 -29 -15 -41 3 -5 1 -9 -4 -9 -22
0 -19 -29 5 -51 15 -13 23 -19 19 -12 -3 6 -2 14 3 18 6 3 8 -5 6 -18 -4 -17
3 -27 24 -40 35 -20 44 -21 36 -4 -4 6 0 4 8 -5 19 -24 48 -23 108 3 32 14 48
27 45 35 -3 9 1 11 12 8 10 -4 13 -3 6 3 -6 4 -32 37 -59 73 -26 36 -51 64
-56 63 -4 -2 -5 5 -2 14 5 12 3 14 -7 8 -9 -5 -11 -4 -6 3 8 14 -19 57 -36 57
-6 0 -13 7 -15 15 -4 13 -3 13 6 0 6 -8 11 -10 11 -5 -1 6 -7 18 -14 28 -12
16 -14 16 -20 1z m39 -73 c3 -5 2 -12 -3 -15 -5 -3 -9 1 -9 9 0 17 3 19 12 6z
m28 -96 c-3 -9 -8 -14 -10 -11 -3 3 -2 9 2 15 9 16 15 13 8 -4z m42 5 c3 -5 1
-10 -4 -10 -6 0 -11 5 -11 10 0 6 2 10 4 10 3 0 8 -4 11 -10z m-153 -60 c-4
-3 -9 -9 -13 -13 -3 -4 -12 0 -20 9 -12 16 -12 17 4 11 12 -4 17 -1 17 11 0
14 2 15 10 2 5 -8 6 -17 2 -20z m189 -14 c-6 -7 -8 -16 -4 -19 3 -4 12 1 20
11 13 15 13 15 3 -6 -9 -19 -14 -21 -26 -11 -10 8 -11 15 -4 24 5 6 6 16 2 20
-4 5 -1 5 6 1 9 -6 10 -11 3 -20z m-46 -66 c-3 -5 -11 -10 -16 -10 -6 0 -7 5
-4 10 3 6 11 10 16 10 6 0 7 -4 4 -10z"/>
<path d="M216 321 c-3 -38 -9 -76 -12 -85 -4 -11 -1 -16 10 -16 12 0 16 10 16
45 0 25 4 45 8 45 4 0 19 -24 34 -52 l25 -53 31 60 c25 48 31 55 32 35 2 -31
10 -84 14 -88 2 -1 11 0 20 4 14 5 16 15 12 43 -3 20 -8 57 -12 84 -8 57 -23
60 -46 9 -10 -21 -24 -46 -31 -56 -13 -18 -16 -15 -42 37 -15 32 -33 57 -40
57 -8 0 -14 -24 -19 -69z"/>
<path d="M486 358 c-8 -18 -24 -55 -35 -81 -25 -58 -26 -68 -6 -61 8 4 15 12
15 19 0 7 7 18 15 25 19 16 65 -1 65 -24 0 -12 39 -30 48 -22 6 7 -66 170 -77
174 -6 2 -18 -11 -25 -30z m28 -69 c-10 -16 -36 -10 -30 7 3 9 6 21 6 27 0 7
7 3 15 -7 8 -10 12 -23 9 -27z"/>
<path d="M625 350 c30 -48 31 -54 4 -92 -15 -20 -18 -33 -11 -40 7 -7 16 0 27
23 17 31 18 32 31 13 24 -35 35 -44 49 -44 20 0 19 19 -5 55 -26 39 -25 50 6
91 26 33 26 34 5 34 -11 0 -21 -4 -21 -8 0 -5 -6 -17 -14 -27 -14 -19 -15 -19
-27 8 -9 20 -19 27 -41 27 l-28 0 25 -40z"/>
<path d="M760 386 c0 -18 53 -166 60 -171 6 -4 23 21 38 56 l28 61 17 -55 c26
-81 40 -79 71 9 15 41 30 82 33 90 3 8 -1 14 -10 14 -9 0 -19 -18 -27 -47 -7
-27 -16 -51 -20 -56 -3 -4 -14 18 -24 48 -22 69 -42 70 -65 3 -9 -26 -19 -50
-23 -53 -3 -4 -12 19 -19 49 -11 48 -15 56 -36 56 -12 0 -23 -2 -23 -4z"/>
<path d="M1032 302 l-1 -89 50 0 c34 0 49 4 49 14 0 8 -11 13 -29 13 -22 0
-28 4 -26 18 2 9 4 22 4 29 1 7 11 10 26 7 18 -3 25 0 25 12 0 12 -6 15 -24
10 -29 -7 -37 2 -29 32 3 15 13 22 29 22 13 0 24 5 24 10 0 6 -22 10 -49 10
l-49 0 0 -88z"/>
<path d="M1170 310 c0 -44 0 -83 0 -87 0 -4 23 -9 51 -10 37 -2 50 0 46 9 -2
8 -15 12 -30 10 l-27 -3 0 80 c0 74 -2 81 -20 81 -18 0 -20 -7 -20 -80z"/>
<path d="M1296 303 l1 -88 52 -1 c35 -1 51 2 48 10 -2 6 -16 10 -31 8 l-26 -3
0 81 c0 76 -1 80 -22 80 -22 0 -23 -3 -22 -87z"/>
</g>
</svg>
