<?xml version="1.0" standalone="no"?>
<!DOCTYPE svg PUBLIC "-//W3C//DTD SVG 20010904//EN"
 "http://www.w3.org/TR/2001/REC-SVG-20010904/DTD/svg10.dtd">
<svg version="1.0" xmlns="http://www.w3.org/2000/svg"
 width="1821.000000pt" height="267.000000pt" viewBox="0 0 1821.000000 267.000000"
 preserveAspectRatio="xMidYMid meet">

<g transform="translate(0.000000,267.000000) scale(0.100000,-0.100000)"
fill="#000000" stroke="none">
<path d="M16055 2093 c-3 -10 -72 -209 -151 -443 -80 -234 -168 -492 -197
-575 l-52 -150 -339 -3 -339 -2 6 27 c5 24 94 286 332 973 23 69 46 135 50
148 l6 22 -589 0 c-552 0 -590 -1 -597 -17 -4 -10 -40 -115 -82 -233 -41 -118
-130 -372 -197 -565 l-122 -350 -334 -3 c-184 -1 -337 1 -341 5 -5 5 23 96 60
203 150 426 331 951 331 960 0 7 -214 9 -592 8 l-591 -3 -33 -95 c-17 -52 -77
-225 -132 -385 -55 -159 -148 -429 -207 -600 -58 -171 -133 -387 -166 -481
-32 -94 -59 -174 -59 -178 0 -3 343 -6 763 -6 l762 0 89 98 c323 352 433 468
440 461 3 -3 -5 -34 -19 -70 -35 -93 -153 -432 -161 -463 l-6 -26 770 0 c738
0 771 1 784 18 7 11 54 63 103 116 50 54 99 108 110 120 219 241 280 306 288
306 5 0 6 -8 2 -17 -10 -26 -155 -451 -171 -501 l-13 -42 583 0 583 0 56 158
c157 445 557 1593 557 1597 0 3 -265 5 -589 5 -552 0 -589 -1 -596 -17z"/>
<path d="M3471 2078 c-5 -13 -40 -115 -79 -228 -86 -249 -131 -380 -182 -525
-21 -60 -81 -234 -134 -385 -52 -151 -120 -347 -150 -434 -31 -88 -56 -161
-56 -163 0 -2 267 -3 593 -3 l594 0 88 287 c49 159 92 296 97 305 7 15 39 17
316 20 343 5 363 8 507 78 149 73 269 195 354 360 93 179 112 379 50 520 -24
54 -69 103 -126 137 -91 53 -80 53 -1006 53 l-857 0 -9 -22z"/>
<path d="M5939 1988 c-40 -57 -91 -129 -113 -160 -23 -31 -83 -117 -134 -190
-52 -73 -179 -254 -284 -403 -104 -148 -245 -349 -313 -445 -67 -96 -163 -233
-214 -305 l-91 -130 422 -3 c233 -1 424 1 426 5 1 5 59 89 128 188 194 275
242 345 287 412 23 35 47 63 52 63 6 0 10 -121 10 -342 l0 -343 578 -3 577 -2
0 880 0 880 -630 0 -629 0 -72 -102z"/>
<path d="M7925 2078 c-3 -7 -48 -134 -101 -283 -53 -148 -120 -337 -149 -420
-49 -138 -148 -415 -310 -865 l-62 -175 181 -3 c99 -2 258 0 352 3 l171 7 59
172 c94 279 120 347 130 347 5 0 14 -17 21 -38 29 -95 87 -287 114 -375 l30
-98 599 0 598 0 16 42 c21 59 87 244 199 563 52 149 163 463 246 698 83 235
151 430 151 432 0 3 -154 5 -343 5 l-343 0 -99 -260 c-55 -143 -104 -259 -109
-257 -11 4 -5 -15 -92 285 l-67 232 -594 0 c-466 0 -595 -3 -598 -12z"/>
<path d="M10294 2038 c-9 -29 -22 -64 -29 -78 -6 -14 -24 -63 -39 -110 -30
-92 -356 -1020 -462 -1314 -35 -98 -64 -180 -64 -182 0 -2 431 -4 958 -4 l957
0 95 272 c52 150 96 278 98 285 3 11 -77 13 -417 13 -330 0 -421 3 -421 13 0
6 9 31 20 54 l19 43 417 2 418 3 92 255 c51 140 93 258 94 263 0 4 -198 7
-440 7 -242 0 -440 1 -440 3 0 2 7 24 16 50 l16 47 437 0 437 0 19 53 c10 28
44 123 76 210 33 87 59 160 59 162 0 3 -427 5 -949 5 l-949 0 -18 -52z"/>
<path d="M17543 2036 c-160 -75 -231 -267 -148 -402 44 -71 117 -107 205 -102
81 4 141 32 203 95 107 107 117 285 21 375 -67 63 -187 77 -281 34z m196 -56
c114 -58 116 -231 4 -330 -115 -101 -269 -69 -313 65 -31 93 38 225 140 269
50 22 123 20 169 -4z"/>
<path d="M17545 1928 c-4 -15 -35 -237 -35 -255 0 -8 12 -13 29 -13 30 0 41
14 41 55 0 29 9 55 20 55 4 0 18 -25 31 -55 22 -50 27 -55 57 -55 38 0 39 4 7
55 -30 50 -30 49 1 63 30 14 58 75 50 108 -4 13 -20 30 -36 39 -36 19 -159 21
-165 3z m119 -44 c39 -15 6 -64 -43 -64 -16 0 -21 6 -21 28 0 16 3 32 7 35 8
9 36 9 57 1z"/>
<path d="M1830 1790 c-463 -35 -851 -183 -931 -355 -101 -217 206 -421 756
-502 173 -25 606 -25 760 0 256 43 544 137 558 183 3 11 35 103 71 206 l65
187 -55 36 c-279 186 -752 280 -1224 245z m420 -198 c118 -28 195 -61 246
-105 36 -31 44 -45 44 -72 0 -80 -107 -145 -310 -190 -100 -22 -420 -32 -532
-16 -512 73 -548 302 -63 392 139 26 488 21 615 -9z"/>
</g>
</svg>
