<?xml version="1.0" encoding="UTF-8"?>
<svg version="1.1" viewBox="0 0 2048 300" width="1280" height="1280" xmlns="http://www.w3.org/2000/svg">
<path transform="translate(0)" d="m0 0h2048v300h-2048z" fill="#FEFEFE"/>
<path transform="translate(1814,62)" d="m0 0h36l90 1-10 30-17 48-19 55-13 37-9 25-2 3h-132l3-11 16-47v-3l-7 8-24 26-9 10-12 13-5 5h-169l-4-1 3-10 14-41 3-10-9 9-7 8-15 16-11 12-14 15-3 2h-169l-2-1 3-11 21-61 38-110 5-14 1-1h135l-10 29-16 47-14 40-6 16h76l2-9 17-48 19-55 7-19 1-1h133l-1 7-19 56-15 43-9 26 75-1 25-74 15-43 5-15z" fill="#0261AD"/>
<path transform="translate(892,64)" d="m0 0h134l16 54 1 4 5-12 17-43 2-3h78l-3 10-17 49-34 96-14 39-2 3h-135l-3-7-15-49-2 3-18 53-2 2h-79l2-9 15-42 19-53 20-56 14-38z" fill="#0260AD"/>
<path transform="translate(1160,64)" d="m0 0h214l-1 6-14 38-3 6h-98l-3 10h99l-3 10-17 48-2 3h-94l-3 10 94 1-2 9-19 54-1 2h-217l3-10 19-54 17-48 20-57 10-27z" fill="#0261AD"/>
<path transform="translate(676,64)" d="m0 0h142v199h-131l-1-76-10 14-16 23-14 20-12 17-2 1h-94v-3l10-14 24-34 14-20 24-34 14-20 24-34 14-20 12-17z" fill="#0261AE"/>
<path transform="translate(391,64)" d="m0 0h197l11 4 9 6 6 7 4 8 2 10v15l-4 18-9 19-9 12-7 8-12 9-15 8-17 5-7 1-62 1-18 58-3 9h-135l3-11 34-98 30-86z" fill="#0260AD"/>
<path transform="translate(223,97)" d="m0 0h13l28 2 23 4 19 5 21 8 15 8 8 6-2 9-13 37-4 3-21 8-22 6-24 4-25 2h-18l-34-3-23-4-25-7-18-8-13-9-6-7-4-8v-9l3-7 6-8 11-8 16-8 21-7 24-5 26-3z" fill="#0262AE"/>
<path transform="translate(77,168)" d="m0 0 2 1 5 12 10 13 10 8 17 10 25 10 23 6 29 5 22 2h52l24-3 9-1-2 9-7 21-6 2-20 2h-48l-31-3-27-5-23-6-23-8-19-9-16-10-11-9-9-9 3-10 10-27z" fill="#02B4F1"/>
<path transform="translate(224,65)" d="m0 0h142l-1 5-11 31-9-2-22-6-24-4-22-2h-57l-27 3-26 5-27 8-20 9-15 9-10 9-5 3 3-9 8-21 4-4 14-8 19-9 25-8 29-6 16-2z" fill="#02B4F1"/>
<path transform="translate(200,118)" d="m0 0h31l21 3 15 4 12 6 6 7v7l-6 7-12 6-15 4-21 3h-30l-22-3-15-4-12-6-6-7v-7l6-7 12-6 19-5z" fill="#FEFEFE"/>
<path transform="translate(1984,67)" d="m0 0 10 1 10 5 6 7 3 7v14l-4 9-6 8-9 7-7 3-5 1h-7l-10-3-8-6-5-10-1-4v-7l3-10 5-8 7-7 12-6z" fill="#FEFEFE"/>
<path transform="translate(1984,67)" d="m0 0 10 1 10 5 6 7 3 7v14l-4 9-6 8-9 7-7 3-5 1h-7l-10-3-8-6-5-10-1-4v-7l3-10 5-8 7-7 12-6zm-1 8-11 4-8 8-4 10v8l3 8 7 6 5 2h8l10-4 8-9 3-7v-12l-4-8-8-5z" fill="#0269B4"/>
<path transform="translate(56,225)" d="m0 0 2 3 8 16 7 9 11 11h-42l-1-2 14-36z" fill="#02B4F1"/>
<path transform="translate(1972,82)" d="m0 0h19l5 4 1 6-3 7-6 2 6 11v2h-9l-6-11-2 11h-9l2-17z" fill="#026BB6"/>
<path transform="translate(115,67)" d="m0 0h40v2l-16 6-15 8-13 9-7 5 1-6 9-23z" fill="#02B4F1"/>
<path transform="translate(1980,89)" d="m0 0h7l1 3-3 3h-5z" fill="#FEFEFE"/>
</svg>
