<?xml version="1.0" standalone="no"?>
<!DOCTYPE svg PUBLIC "-//W3C//DTD SVG 20010904//EN"
 "http://www.w3.org/TR/2001/REC-SVG-20010904/DTD/svg10.dtd">
<svg version="1.0" xmlns="http://www.w3.org/2000/svg"
 width="2504.000000pt" height="448.000000pt" viewBox="0 0 2504.000000 448.000000"
 preserveAspectRatio="xMidYMid meet">

<g transform="translate(0.000000,448.000000) scale(0.100000,-0.100000)"
fill="#000000" stroke="none">
<path d="M1614 4449 c-368 -33 -760 -206 -1017 -450 l-89 -84 184 -105 c384
-220 662 -349 945 -440 340 -109 765 -184 1193 -210 209 -13 660 -13 660 -1 0
17 -57 176 -90 251 -166 378 -476 696 -855 876 -285 135 -607 192 -931 163z"/>
<path d="M9608 4339 c-699 -68 -1397 -561 -1737 -1229 -33 -63 -71 -151 -87
-195 -34 -101 -44 -112 -31 -38 6 32 10 130 10 218 0 126 -4 182 -22 262 -53
251 -151 435 -325 609 -229 229 -513 346 -876 360 -831 34 -1733 -598 -2044
-1430 -35 -93 -779 -2847 -771 -2854 2 -2 204 100 449 228 l445 232 15 51 c8
29 141 525 296 1102 155 578 295 1084 311 1125 57 144 176 318 295 431 153
145 364 266 549 316 87 23 119 26 250 27 137 0 157 -3 232 -27 102 -34 218
-110 274 -180 61 -76 108 -181 126 -284 20 -114 6 -267 -37 -395 -149 -444
-588 -802 -1032 -843 -92 -8 -283 10 -387 36 -102 26 -210 79 -265 129 l-45
41 -14 -48 c-8 -26 -54 -190 -102 -365 l-88 -316 22 -30 c44 -63 185 -139 326
-177 80 -22 380 -31 511 -16 735 87 1395 555 1714 1216 32 66 71 155 86 198
15 43 28 76 30 74 2 -1 -1 -32 -6 -67 -14 -98 -12 -304 5 -407 83 -511 436
-874 968 -995 80 -18 135 -21 422 -25 l330 -5 98 364 c54 199 100 373 103 386
l6 22 -296 0 c-333 0 -400 8 -521 64 -93 43 -163 101 -219 179 -43 60 -96 178
-96 212 0 13 81 15 630 15 347 0 630 2 630 4 0 2 45 171 100 374 55 203 100
375 100 381 0 8 -172 11 -620 11 -411 0 -620 3 -620 10 0 6 46 56 103 113 189
189 403 309 636 357 85 17 137 20 368 20 l269 0 102 378 c56 207 102 380 102
385 0 10 -562 7 -672 -4z"/>
<path d="M10450 4348 c0 -2 -47 -175 -103 -385 l-104 -383 593 0 c671 0 692
-2 831 -70 146 -72 247 -189 296 -345 33 -106 31 -285 -6 -420 -91 -339 -346
-636 -680 -795 -172 -82 -316 -110 -570 -110 -127 0 -138 1 -133 18 3 9 70
269 150 577 80 308 150 576 156 595 5 19 10 41 10 47 0 10 -84 13 -390 13
-214 0 -390 -2 -390 -5 0 -3 -119 -451 -265 -995 -146 -544 -265 -996 -265
-1005 0 -13 65 -15 563 -15 733 0 838 10 1127 106 653 217 1227 785 1428 1415
56 173 73 279 79 470 8 269 -28 439 -139 651 -164 315 -450 523 -836 610 -93
21 -123 22 -724 25 -346 2 -628 3 -628 1z"/>
<path d="M18175 3605 c-109 -410 -200 -743 -202 -742 -2 2 2 49 8 103 20 177
-7 408 -67 576 -122 339 -391 599 -739 716 -173 58 -239 67 -475 67 -185 0
-231 -3 -329 -23 -545 -110 -1056 -451 -1406 -937 -52 -72 -57 -77 -51 -45 32
166 32 340 1 455 -39 143 -136 294 -247 385 -76 62 -196 122 -304 152 -76 21
-98 22 -635 26 l-555 3 -98 -368 c-53 -202 -99 -376 -102 -385 -5 -17 25 -18
528 -18 534 0 534 0 578 -22 61 -31 83 -74 77 -150 -9 -104 -94 -220 -208
-283 l-54 -30 -265 -6 c-146 -4 -380 -8 -520 -8 l-255 -1 -268 -1003 c-147
-551 -267 -1005 -267 -1010 0 -4 174 -6 387 -5 l387 3 167 625 166 625 68 0
69 0 192 -624 c106 -343 195 -625 197 -627 2 -3 189 -3 414 -2 l411 3 -225
735 -224 735 54 50 c76 69 238 246 300 327 28 37 52 66 54 65 1 -2 -16 -54
-37 -116 -245 -695 -14 -1368 565 -1647 198 -95 377 -134 620 -134 528 0 1045
230 1471 655 245 244 409 492 520 788 24 65 33 80 29 52 -26 -186 -22 -402 10
-543 95 -416 376 -734 768 -871 156 -54 262 -72 479 -78 l196 -6 12 39 c6 22
53 194 104 384 l93 345 -201 6 c-222 7 -264 16 -385 75 -218 108 -340 360
-302 626 6 42 114 465 241 938 126 474 230 863 230 866 0 2 -175 4 -388 4
l-388 0 -199 -745z m-1385 -75 c201 -67 349 -228 396 -428 21 -89 14 -258 -15
-367 -30 -109 -116 -283 -191 -384 -307 -414 -835 -619 -1217 -471 -174 67
-292 197 -349 385 -27 87 -24 282 5 389 51 189 148 357 294 512 189 199 400
323 637 375 120 27 346 21 440 -11z"/>
<path d="M19971 4313 c-5 -21 -104 -394 -220 -828 -236 -887 -237 -890 -252
-1056 -52 -575 256 -1077 781 -1272 166 -62 277 -80 499 -81 l195 -1 95 357
c53 197 99 358 102 358 3 0 16 -24 30 -53 64 -138 202 -308 334 -408 142 -108
330 -193 525 -235 132 -29 496 -27 640 4 415 90 810 306 1123 615 424 418 656
947 634 1447 -21 497 -295 898 -731 1074 -614 248 -1409 38 -2005 -528 -236
-225 -447 -549 -549 -847 -123 -356 -130 -641 -26 -998 l7 -24 -179 6 c-139 5
-196 11 -254 27 -297 84 -462 337 -430 657 5 50 92 394 239 945 127 476 231
868 231 872 0 3 -175 6 -390 6 l-389 0 -10 -37z m3248 -759 c221 -51 387 -219
437 -440 22 -99 15 -265 -16 -379 -93 -348 -409 -689 -764 -826 -141 -54 -242
-71 -401 -67 -166 5 -247 28 -358 104 -166 113 -250 284 -250 504 1 337 215
698 546 921 264 177 551 242 806 183z"/>
<path d="M286 3628 c-37 -58 -119 -219 -114 -223 5 -4 215 -72 358 -115 567
-172 1283 -286 2085 -330 227 -12 887 -33 906 -29 11 3 13 16 6 67 l-9 62
-261 0 c-620 0 -1121 49 -1687 165 -379 77 -739 203 -1093 381 -81 41 -150 74
-153 74 -2 0 -19 -24 -38 -52z"/>
<path d="M61 3083 c-17 -76 -43 -245 -38 -249 1 -1 463 -15 1027 -32 669 -20
1281 -33 1763 -36 l737 -5 0 39 0 40 -47 0 c-246 1 -1099 22 -1248 30 -494 26
-985 80 -1425 156 -171 29 -651 122 -726 140 -20 5 -24 -2 -43 -83z"/>
<path d="M2440 2660 c-526 -4 -1007 -14 -1585 -35 -457 -15 -831 -29 -832 -29
-10 -6 51 -336 63 -336 2 0 126 25 276 55 516 103 933 164 1433 210 394 36
648 47 1230 54 l520 6 3 43 3 42 -178 -2 c-98 -1 -518 -5 -933 -8z"/>
<path d="M3225 2489 c-973 -25 -1750 -111 -2350 -260 -240 -60 -705 -201 -705
-215 0 -11 76 -153 111 -210 l40 -62 172 87 c385 195 760 317 1222 401 552 99
831 125 1458 137 308 5 347 8 348 22 0 9 4 37 8 64 5 32 4 46 -3 45 -6 0 -141
-5 -301 -9z"/>
<path d="M2875 2273 c-270 -16 -559 -53 -810 -104 -370 -74 -706 -194 -1051
-374 -164 -85 -473 -261 -492 -279 -10 -10 0 -24 55 -72 150 -133 254 -204
411 -283 293 -147 616 -210 935 -183 248 21 430 72 652 182 168 84 296 173
426 298 165 158 279 312 373 506 49 101 116 277 116 305 0 8 -78 11 -282 9
-156 -1 -305 -3 -333 -5z"/>
</g>
</svg>
