<?xml version="1.0" encoding="UTF-8"?>
<svg version="1.1" viewBox="0 0 2048 366" width="1280" height="1280" xmlns="http://www.w3.org/2000/svg">
<path transform="translate(0)" d="m0 0h2048v366h-2048z" fill="#FEFEFE"/>
<path transform="translate(1078,11)" d="m0 0 91 1 15 4 11 6 10 8 9 12 5 11 3 13v19l-2 11 10-14 10-11 6-7h2v-2l22-18 18-11 16-8 19-7 16-4 14-2h26l17 3 18 6 13 7 12 9 10 10 9 13 8 17 4 15 1 7v28l22-82 9-33 1-1h63l-2 11-24 90-10 37-2 12v11l3 13 6 11 6 7 11 7 13 4 7 1 26 1-1 7-14 52-2 4h-23l-16-2-18-5-16-8-13-9-13-13-9-14-5-10-5-16-2-11v-32l-6 15-9 17-12 17-10 11-7 8-12 11-18 13-21 12-20 8-13 4-15 3-8 1h-25l-17-3-16-5-14-7-12-9-8-7-10-13-8-15-5-15-3-18v-18l3-20 5-17v-4l-9 11-14 15-6 7 22 72 14 46v1h-68l-3-8-21-67-8-26v-2h-11l-1 8-14 52-11 41-1 2h-64l9-35 22-82 13-48 80-1 10-3 8-6 4-5 4-9v-8l-3-5-3-2-5-1-85-1 2-11 13-49z" fill="#185293"/>
<path transform="translate(785,11)" d="m0 0h56l-2 10-14 51-1 1-39 1-15 2-15 5-16 8-13 10-13 13-1 2h101l-1 8-15 55h-103l4 13 8 11 11 8 11 4 11 2 47 1-2 10-14 52-1 1h-45l-15-2-15-4-12-5-13-7-13-11-10-11-8-13-6-14-4-16-1-8v-27l-6 15-9 17-11 16-13 15-10 10-14 11-15 10-15 8-21 8-19 5-20 3h-26l-15-3-12-5-8-6-4-4 1-8 14-50 2-3 8 7 12 5 12 3 8 1h20l17-4 17-8 13-9 12-11 10-13 8-14 5-15 2-12v-10l-4-16-6-10-4-5-10-7-11-4-10-2h-14l-15 3-16 6-12 7-9 7-10 9-9 11-8 14-5 12-17 63-25 93-7 24-22 12-41 21-9 5h-2l4-17 13-48 19-71 22-82 7-21 10-20 10-15 13-16 16-16 14-11 15-10 19-10 25-9 20-4 11-1h18l19 3 18 6 15 8 10 8 12 12 7 10 8 16 4 13 2 11v32l7-17 8-15 12-17 13-15 7-7 8-7 13-10 16-10 15-8 19-7 19-5z" fill="#185293"/>
<path transform="translate(1634,11)" d="m0 0h64l-2 10-29 109-6 23-1 6v14l3 12 6 11 9 9 14 7 9 2h28l-4-15-1-6v-31l4-20 6-18 8-17 11-17 11-14 12-13 11-10 16-12 19-11 15-7 21-7 21-4h33l19 4 13 5 15 8 11 9 7 7 10 14 8 17 4 14 2 18v10l-2 18-5 20-6 15-8 16-10 15-8 10-9 10-13 13-17 13-16 10-23 11-20 6-14 3-9 1h-24l-18-3-18-6-16-9-11-9-7-7-8-11-7-13-4 12-11 42-2 4h-23l-16-2-15-4-16-7-11-7-13-11-9-11-8-14-6-15-3-14-1-10v-13l2-17 6-25 15-56 16-60z" fill="#185293"/>
<path transform="translate(855,11)" d="m0 0h102l18 4 14 5 16 9 11 9v2h2l9 11 7 11 6 13 4 14 2 16v14l-3 21-6 21-8 18-10 17-10 13-9 10-7 8-10 9-13 10-16 10-17 9-19 7-21 5-8 1h-106l4-17 26-97 13-48 1-3h64l-2 10-18 70-6 23 32-2 16-4 16-7 12-8 10-9 8-8 10-15 7-16 4-20v-8l-3-14-6-12-9-9-14-7-8-2-9-1-93-1 2-10 14-51z" fill="#185293"/>
<path transform="translate(244,179)" d="m0 0h42l-2 9-5 13-10 19-12 16-11 12-11 9-13 9-19 10-21 7-15 3-9 1h-24l-20-3-18-5-18-8-16-10-10-8-10-9 1-3 24-14 29-15 18-8 33-11 26-6 32-5 20-2z" fill="#ED3137"/>
<path transform="translate(128,2)" d="m0 0h36l24 5 18 7 17 9 14 10 12 11 7 7 10 13 9 15 8 18 3 12h-51l-25-2-28-4-25-5-25-7-24-9-25-12-19-10-22-13 2-4 8-8 15-11 16-9 15-6 18-5z" fill="#ED3137"/>
<path transform="translate(1874,74)" d="m0 0h20l14 4 10 6 5 4 7 10 5 12 1 6v16l-4 17-8 17-9 12-9 10-8 7-15 10-16 7-17 4h-18l-12-3-12-6-9-8-6-10-4-11-1-7v-10l3-15 5-13 7-13 8-10 8-9 14-11 14-8 13-5z" fill="#FEFEFE"/>
<path transform="translate(1345,75)" d="m0 0h18l13 3 11 6 10 9 6 10 4 14v14l-4 17-7 16-9 13-11 12-12 10-14 8-11 5-16 4h-23l-13-4-10-6-7-6-7-11-3-9-1-5v-17l4-16 5-12 9-14 9-10 9-9 10-7 12-7 17-6z" fill="#FEFEFE"/>
<path transform="translate(26,65)" d="m0 0 6 2 16 8 23 10 33 11 26 6 41 7 24 3 29 2 64 2 2 10-1 1h-27l-48-2-42-3-48-6-29-5-31-7-34-10-15-5-1-4 10-18z" fill="#ED3137"/>
<path transform="translate(252,162)" d="m0 0h38l-2 11-53 1-44 3-23 3-35 6-27 6-26 8-24 10-25 12-5 2-6-9-6-12 1-3 27-9 38-10 24-5 33-5 45-5 44-3z" fill="#ED3137"/>
<path transform="translate(153,148)" d="m0 0h138l-1 7-84 2-41 2-52 5-42 6-64 12-3-8-2-10v-11z" fill="#ED3137"/>
<path transform="translate(6,107)" d="m0 0 10 1 46 9 39 6 36 4 36 3 51 2 66 1 1 7-1 1h-37l-107-1-129-4-15-1v-10z" fill="#ED3137"/>
</svg>
